<!-- Generator: Adobe Illustrator 21.0.0, SVG Export Plug-In  -->
<svg version="1.1"
	 xmlns="http://www.w3.org/2000/svg" xmlns:xlink="http://www.w3.org/1999/xlink" xmlns:a="http://ns.adobe.com/AdobeSVGViewerExtensions/3.0/"
	 x="0px" y="0px" width="21.2px" height="21.2px" viewBox="0 0 21.2 21.2" style="enable-background:new 0 0 21.2 21.2;"
	 xml:space="preserve">
<style type="text/css">
	.st0{fill:#008CD0;}
</style>
<defs>
</defs>
<g>
	<path class="st0" d="M8.5,14.6c-0.3,0-0.5-0.2-0.6-0.4l-5-12.8H0.7C0.3,1.4,0,1.1,0,0.7S0.3,0,0.7,0h2.6C3.6,0,3.9,0.2,4,0.4
		l5.2,13.3c0.1,0.4,0,0.8-0.4,0.9C8.7,14.6,8.6,14.6,8.5,14.6z"/>
	<path class="st0" d="M18.7,18H6.8c-1,0-1.9-1-1.9-2v-0.2c0-1,0.6-1.8,1.5-2l12-3l1.3-5.3H5.2c-0.4,0-0.7-0.3-0.7-0.7
		s0.3-0.7,0.7-0.7h15.3c0.2,0,0.4,0.1,0.5,0.3c0.1,0.2,0.2,0.4,0.1,0.6l-1.6,6.5c-0.1,0.3-0.3,0.4-0.5,0.5L6.6,15.2
		c-0.2,0.1-0.4,0.4-0.4,0.7v0.2c0,0.2,0.3,0.6,0.5,0.6h11.9c0.4,0,0.7,0.3,0.7,0.7S19.1,18,18.7,18z"/>
	<circle class="st0" cx="8.1" cy="19.8" r="1.4"/>
	<circle class="st0" cx="17.2" cy="19.8" r="1.4"/>
</g>
</svg>
