<!-- Generator: Adobe Illustrator 21.0.0, SVG Export Plug-In  -->
<svg version="1.1"
	 xmlns="http://www.w3.org/2000/svg" xmlns:xlink="http://www.w3.org/1999/xlink" xmlns:a="http://ns.adobe.com/AdobeSVGViewerExtensions/3.0/"
	 x="0px" y="0px" width="23px" height="21.9px" viewBox="0 0 23 21.9" style="enable-background:new 0 0 23 21.9;"
	 xml:space="preserve">
<style type="text/css">
	.st0{fill:#64A727;}
</style>
<defs>
</defs>
<path class="st0" d="M4.9,21.9c-0.2,0-0.3,0-0.4-0.1c-0.2-0.2-0.3-0.4-0.3-0.7l1.2-7l-5.1-5C0,8.9-0.1,8.6,0,8.3
	C0.1,8,0.4,7.8,0.6,7.8l7.1-1l3.2-6.4c0.3-0.5,1.1-0.5,1.3,0l3.2,6.4l7,1c0.3,0,0.5,0.2,0.6,0.5c0.1,0.3,0,0.6-0.2,0.8l-5.1,5l1.2,7
	c0,0.3-0.1,0.6-0.3,0.7c-0.2,0.2-0.5,0.2-0.8,0.1l-6.3-3.3l-6.3,3.3C5.1,21.9,5,21.9,4.9,21.9z M11.5,16.9c0.1,0,0.2,0,0.3,0.1
	l5.3,2.8l-1-5.9c0-0.2,0-0.5,0.2-0.7l4.3-4.2l-5.9-0.9c-0.2,0-0.5-0.2-0.6-0.4l-2.7-5.4L8.9,7.8C8.7,8,8.5,8.2,8.3,8.2L2.4,9.1
	l4.3,4.2c0.2,0.2,0.3,0.4,0.2,0.7l-1,5.9l5.3-2.8C11.3,17,11.4,16.9,11.5,16.9z"/>
</svg>
