<!-- Generator: Adobe Illustrator 21.0.0, SVG Export Plug-In  -->
<svg version="1.1"
	 xmlns="http://www.w3.org/2000/svg" xmlns:xlink="http://www.w3.org/1999/xlink" xmlns:a="http://ns.adobe.com/AdobeSVGViewerExtensions/3.0/"
	 x="0px" y="0px" width="21.2px" height="21.2px" viewBox="0 0 21.2 21.2" style="enable-background:new 0 0 21.2 21.2;"
	 xml:space="preserve">
<style type="text/css">
	.st0{fill:#FFFFFF;}
</style>
<defs>
</defs>
<g>
	<path class="st0" d="M21,4.4c-0.1-0.2-0.3-0.3-0.5-0.3H5.4L4,0.4C3.9,0.2,3.6,0,3.3,0H0.7C0.3,0,0,0.3,0,0.7c0,0.4,0.3,0.7,0.7,0.7
		h2.2l4.7,12.1l-1.3,0.3c-0.8,0.2-1.5,1.1-1.5,2v0.2c0,1,1,2,1.9,2h11.9c0.4,0,0.7-0.3,0.7-0.7c0-0.4-0.3-0.7-0.7-0.7H6.8
		c-0.2,0-0.5-0.4-0.5-0.6v-0.2c0-0.3,0.2-0.6,0.4-0.7l12.4-3.1c0.3-0.1,0.4-0.3,0.5-0.5L21.1,5C21.2,4.8,21.1,4.6,21,4.4z"/>
	<circle class="st0" cx="8.1" cy="19.8" r="1.4"/>
	<circle class="st0" cx="17.2" cy="19.8" r="1.4"/>
</g>
</svg>
