<svg id="图层_1" data-name="图层 1" xmlns="http://www.w3.org/2000/svg" xmlns:xlink="http://www.w3.org/1999/xlink" viewBox="0 0 232 47.61"><defs><style>.cls-1{fill:url(#未命名的渐变);}.cls-2{fill:url(#未命名的渐变_2);}.cls-3{fill:url(#未命名的渐变_3);}.cls-4{fill:url(#未命名的渐变_4);}.cls-5{fill:url(#未命名的渐变_5);}.cls-6{fill:url(#未命名的渐变_6);}.cls-7{fill:url(#未命名的渐变_7);}.cls-8{fill:url(#未命名的渐变_8);}.cls-9{fill:url(#未命名的渐变_9);}.cls-10{fill:url(#未命名的渐变_10);}.cls-11{fill:url(#未命名的渐变_11);}.cls-12{fill:url(#未命名的渐变_12);}.cls-13{fill:url(#未命名的渐变_13);}.cls-14{fill:#888;}.cls-15{fill:#595757;}</style><linearGradient id="未命名的渐变" x1="0.21" y1="85.05" x2="38.94" y2="85.05" gradientTransform="matrix(1, 0, 0, -1, 0, 88)" gradientUnits="userSpaceOnUse"><stop offset="0" stop-color="#009fe8"/><stop offset="1" stop-color="#6fb92c"/></linearGradient><linearGradient id="未命名的渐变_2" x1="0.21" y1="85.05" x2="38.94" y2="85.05" xlink:href="#未命名的渐变"/><linearGradient id="未命名的渐变_3" x1="0.21" y1="70.9" x2="38.94" y2="70.9" xlink:href="#未命名的渐变"/><linearGradient id="未命名的渐变_4" x1="0.21" y1="70.9" x2="38.94" y2="70.9" xlink:href="#未命名的渐变"/><linearGradient id="未命名的渐变_5" x1="0.21" y1="63.83" x2="38.94" y2="63.83" xlink:href="#未命名的渐变"/><linearGradient id="未命名的渐变_6" x1="0.21" y1="63.83" x2="38.94" y2="63.83" xlink:href="#未命名的渐变"/><linearGradient id="未命名的渐变_7" x1="0.21" y1="56.76" x2="38.94" y2="56.76" xlink:href="#未命名的渐变"/><linearGradient id="未命名的渐变_8" x1="0.21" y1="56.76" x2="38.93" y2="56.76" xlink:href="#未命名的渐变"/><linearGradient id="未命名的渐变_9" x1="0.21" y1="49.69" x2="38.94" y2="49.69" xlink:href="#未命名的渐变"/><linearGradient id="未命名的渐变_10" x1="0.21" y1="49.69" x2="38.94" y2="49.69" xlink:href="#未命名的渐变"/><linearGradient id="未命名的渐变_11" x1="0.21" y1="42.56" x2="38.94" y2="42.56" xlink:href="#未命名的渐变"/><linearGradient id="未命名的渐变_12" x1="0.21" y1="42.56" x2="38.94" y2="42.56" xlink:href="#未命名的渐变"/><linearGradient id="未命名的渐变_13" x1="0.21" y1="77.98" x2="38.94" y2="77.98" xlink:href="#未命名的渐变"/></defs><title>标准</title><path class="cls-1" d="M12.86,5.12H2.17A2.21,2.21,0,0,1,0,3H0A2.21,2.21,0,0,1,2.17.78H12.86A2.21,2.21,0,0,1,15,3h0A2.17,2.17,0,0,1,12.86,5.12Z"/><path class="cls-2" d="M28,5.12H19.38A2.21,2.21,0,0,1,17.21,3h0A2.21,2.21,0,0,1,19.38.78H27.9A2.21,2.21,0,0,1,30.07,3h0A2.13,2.13,0,0,1,28,5.12Z"/><path class="cls-3" d="M34.64,19.27H14a2.21,2.21,0,0,1-2.17-2.17h0A2.21,2.21,0,0,1,14,14.92H34.58a2.21,2.21,0,0,1,2.17,2.17h0A2.09,2.09,0,0,1,34.64,19.27Z"/><path class="cls-4" d="M7.52,19.27H2.17A2.21,2.21,0,0,1,0,17.1H0a2.21,2.21,0,0,1,2.17-2.17H7.52A2.21,2.21,0,0,1,9.69,17.1h0A2.14,2.14,0,0,1,7.52,19.27Z"/><path class="cls-5" d="M28,26.34H22.61a2.21,2.21,0,0,1-2.17-2.17h0A2.21,2.21,0,0,1,22.61,22H28a2.21,2.21,0,0,1,2.17,2.17h0A2.17,2.17,0,0,1,28,26.34Z"/><path class="cls-6" d="M16,26.34H2.17A2.21,2.21,0,0,1,0,24.17H0A2.21,2.21,0,0,1,2.17,22H16a2.21,2.21,0,0,1,2.17,2.17h0A2.14,2.14,0,0,1,16,26.34Z"/><path class="cls-7" d="M20.27,33.41h0a2.21,2.21,0,0,1-2.17-2.17h0a2.21,2.21,0,0,1,2.17-2.17h0a2.21,2.21,0,0,1,2.17,2.17h0A2.17,2.17,0,0,1,20.27,33.41Z"/><path class="cls-8" d="M13.7,33.41H2.17A2.17,2.17,0,0,1,0,31.24H0a2.21,2.21,0,0,1,2.17-2.17H13.7a2.21,2.21,0,0,1,2.17,2.17h0A2.14,2.14,0,0,1,13.7,33.41Z"/><path class="cls-9" d="M28,40.49H24.45a2.21,2.21,0,0,1-2.17-2.17h0a2.21,2.21,0,0,1,2.17-2.17H28a2.21,2.21,0,0,1,2.17,2.17h0A2.17,2.17,0,0,1,28,40.49Z"/><path class="cls-10" d="M17.88,40.49H2.17A2.17,2.17,0,0,1,0,38.31H0a2.21,2.21,0,0,1,2.17-2.17h15.7A2.21,2.21,0,0,1,20,38.31h0A2.14,2.14,0,0,1,17.88,40.49Z"/><path class="cls-11" d="M21.89,47.61H2.17A2.21,2.21,0,0,1,0,45.44H0a2.21,2.21,0,0,1,2.17-2.17H21.89a2.21,2.21,0,0,1,2.17,2.17h0A2.17,2.17,0,0,1,21.89,47.61Z"/><path class="cls-12" d="M38,47.61H28.4a2.21,2.21,0,0,1-2.17-2.17h0a2.21,2.21,0,0,1,2.17-2.17h9.52a2.21,2.21,0,0,1,2.17,2.17h0A2.13,2.13,0,0,1,38,47.61Z"/><path class="cls-13" d="M34.64,12.2H2.17A2.21,2.21,0,0,1,0,10H0A2.21,2.21,0,0,1,2.17,7.85H34.64A2.21,2.21,0,0,1,36.81,10h0A2.21,2.21,0,0,1,34.64,12.2Z"/><path class="cls-14" d="M56.8,46.78v-.56H57a.83.83,0,0,0,.39-.06.79.79,0,0,0,.33-.11.56.56,0,0,0,.22-.28,1.24,1.24,0,0,0,.06-.5V39.09a1,1,0,0,0-.11-.45.56.56,0,0,0-.22-.28.79.79,0,0,0-.33-.11c-.11,0-.28-.06-.39-.06H56.8v-.56h3.56a5,5,0,0,1,1.39.17,2.23,2.23,0,0,1,1,.56,1.71,1.71,0,0,1,.56.84,3.59,3.59,0,0,1,.17,1.11,3.86,3.86,0,0,1-.17,1.11,2.66,2.66,0,0,1-.56.95A2.48,2.48,0,0,1,61.7,43a4.52,4.52,0,0,1-1.61.22h-.78v2.17a1,1,0,0,0,.11.45.56.56,0,0,0,.22.28.79.79,0,0,0,.33.11c.11,0,.28.06.39.06h.45v.56h-4Zm2.51-4.12H60a5,5,0,0,0,1-.11,1.34,1.34,0,0,0,.67-.39,1.76,1.76,0,0,0,.39-.72,5.13,5.13,0,0,0,.11-1.06,4.9,4.9,0,0,0-.11-.95,1.27,1.27,0,0,0-.33-.67,2.3,2.3,0,0,0-.61-.39,2.46,2.46,0,0,0-.95-.11h-.89v4.4Z"/><path class="cls-14" d="M71.11,45.22a5.44,5.44,0,0,0,.61.78,1.06,1.06,0,0,0,.72.28h.06v.56h-.17a5.41,5.41,0,0,1-1-.06,5.78,5.78,0,0,1-.67-.17,1.34,1.34,0,0,1-.45-.33,2.92,2.92,0,0,1-.39-.61l-1.73-2.9H67v2.62a1,1,0,0,0,.11.45.56.56,0,0,0,.22.28.79.79,0,0,0,.33.11c.11,0,.28.06.39.06h.17v.56H64.54v-.56h.17a.83.83,0,0,0,.39-.06.79.79,0,0,0,.33-.11.56.56,0,0,0,.22-.28,1,1,0,0,0,.11-.45V39.09a1,1,0,0,0-.11-.45.56.56,0,0,0-.22-.28.79.79,0,0,0-.33-.11c-.11,0-.28-.06-.39-.06h-.17v-.56H68a4.05,4.05,0,0,1,2.45.61,2.09,2.09,0,0,1,.84,1.84,2.31,2.31,0,0,1-.17.89,2,2,0,0,1-.45.67,2.47,2.47,0,0,1-.61.45,3.41,3.41,0,0,1-.67.28ZM67,42.16h.89a4.42,4.42,0,0,0,.95-.11,1.17,1.17,0,0,0,.61-.39,1.33,1.33,0,0,0,.33-.61,3.88,3.88,0,0,0,.11-.89,4.33,4.33,0,0,0-.11-.89,1.1,1.1,0,0,0-.33-.61,1.33,1.33,0,0,0-.61-.33,4.42,4.42,0,0,0-.95-.11H67Z"/><path class="cls-14" d="M80.92,42.21a7.16,7.16,0,0,1-.28,1.95,4.83,4.83,0,0,1-.78,1.5,3.66,3.66,0,0,1-1.28.95,4.15,4.15,0,0,1-1.73.33,4.42,4.42,0,0,1-1.78-.33,3.66,3.66,0,0,1-1.28-.95,3.79,3.79,0,0,1-.72-1.5,7,7,0,0,1-.22-1.95,7.21,7.21,0,0,1,.22-1.95,4.71,4.71,0,0,1,.72-1.5,3.66,3.66,0,0,1,1.28-.95,4.42,4.42,0,0,1,1.78-.33,4.15,4.15,0,0,1,1.73.33,4.25,4.25,0,0,1,1.28.95,3.85,3.85,0,0,1,.78,1.5A7.16,7.16,0,0,1,80.92,42.21Zm-6.63,0a7.36,7.36,0,0,0,.17,1.67,4.34,4.34,0,0,0,.45,1.28,2.23,2.23,0,0,0,.84.78,2.83,2.83,0,0,0,2.45,0,1.76,1.76,0,0,0,.78-.78,3.84,3.84,0,0,0,.45-1.28,7.89,7.89,0,0,0,.11-1.67,14,14,0,0,0-.11-1.67A4.34,4.34,0,0,0,79,39.26a2.09,2.09,0,0,0-.78-.78,2.83,2.83,0,0,0-2.45,0,2.23,2.23,0,0,0-.84.78,3.84,3.84,0,0,0-.45,1.28A7.72,7.72,0,0,0,74.29,42.21Z"/><path class="cls-14" d="M86.48,37.53a5.74,5.74,0,0,1,1.11.11,2.54,2.54,0,0,1,.78.28,1.31,1.31,0,0,1,.5.45,1.07,1.07,0,0,1,.17.56,1,1,0,0,1-.11.39.56.56,0,0,1-.22.28l-.33.17a1.09,1.09,0,0,1-.45.06,2.28,2.28,0,0,0-.06-.61.75.75,0,0,0-.28-.5c-.17-.11-.28-.28-.45-.39a1.39,1.39,0,0,0-.72-.17,2.65,2.65,0,0,0-1.23.28,2.23,2.23,0,0,0-.84.78,2.91,2.91,0,0,0-.45,1.28,7.89,7.89,0,0,0-.17,1.73,6.69,6.69,0,0,0,.17,1.56,3.53,3.53,0,0,0,.5,1.23,2.23,2.23,0,0,0,.84.78,2.65,2.65,0,0,0,1.23.28,3.37,3.37,0,0,0,.84-.11c.22-.06.45-.17.61-.22l.5-.33a2.57,2.57,0,0,0,.39-.39l.17.17c.06.06.06.17.06.33a.9.9,0,0,1-.17.5,1.31,1.31,0,0,1-.5.45,2.9,2.9,0,0,1-.84.33,4.18,4.18,0,0,1-1.23.11,4.07,4.07,0,0,1-1.67-.33,3.45,3.45,0,0,1-1.23-.95,3.79,3.79,0,0,1-.72-1.5,7,7,0,0,1-.22-1.95,6.75,6.75,0,0,1,.28-1.89,4.83,4.83,0,0,1,.78-1.5,3.66,3.66,0,0,1,1.28-.95A4.53,4.53,0,0,1,86.48,37.53Z"/><path class="cls-14" d="M94.11,46.89a4.87,4.87,0,0,1-1.34-.17,2.83,2.83,0,0,1-1-.5,1.72,1.72,0,0,1-.61-.89A3.2,3.2,0,0,1,90.94,44V39a1,1,0,0,0-.11-.45.56.56,0,0,0-.22-.28.79.79,0,0,0-.33-.11c-.11,0-.28-.06-.39-.06h-.17v-.56h3.73v.56h-.17a.83.83,0,0,0-.39.06.79.79,0,0,0-.33.11.56.56,0,0,0-.22.28,1.11,1.11,0,0,0-.11.5v5a2.4,2.4,0,0,0,.17.95,1.75,1.75,0,0,0,.45.61,1.27,1.27,0,0,0,.67.33,4.3,4.3,0,0,0,.84.11,2.4,2.4,0,0,0,.95-.17,1.93,1.93,0,0,0,.67-.39,1.44,1.44,0,0,0,.39-.61,3.29,3.29,0,0,0,.11-.78V39.09a1,1,0,0,0-.11-.45.56.56,0,0,0-.22-.28.79.79,0,0,0-.33-.11c-.11,0-.28-.06-.39-.06h-.17v-.56h3.23v.56h-.17a.83.83,0,0,0-.39.06.79.79,0,0,0-.33.11.56.56,0,0,0-.22.28,1.11,1.11,0,0,0-.11.5v5.07A2.74,2.74,0,0,1,97,45.39a1.82,1.82,0,0,1-.61.84,4.28,4.28,0,0,1-1,.56A7.26,7.26,0,0,1,94.11,46.89Z"/><path class="cls-14" d="M105.75,45.22a5.44,5.44,0,0,0,.61.78,1.06,1.06,0,0,0,.72.28h.06v.56H107a5.41,5.41,0,0,1-1-.06,5.78,5.78,0,0,1-.67-.17,1.34,1.34,0,0,1-.45-.33,2.92,2.92,0,0,1-.39-.61l-1.73-2.9h-1.06v2.62a.6.6,0,0,0,.11.45.56.56,0,0,0,.22.28.79.79,0,0,0,.33.11c.11,0,.28.06.39.06h.17v.56H99.18v-.56h.17a.83.83,0,0,0,.39-.06.79.79,0,0,0,.33-.11.56.56,0,0,0,.22-.28,1,1,0,0,0,.11-.45V39.09a.6.6,0,0,0-.11-.45.56.56,0,0,0-.22-.28.79.79,0,0,0-.33-.11c-.11,0-.28-.06-.39-.06h-.17v-.56h3.45a4.05,4.05,0,0,1,2.45.61,2.23,2.23,0,0,1,.84,1.84,2.31,2.31,0,0,1-.17.89,2,2,0,0,1-.45.67,2.47,2.47,0,0,1-.61.45,3.41,3.41,0,0,1-.67.28Zm-4.07-3.06h.89a4.42,4.42,0,0,0,.95-.11,1.44,1.44,0,0,0,.61-.39,1.33,1.33,0,0,0,.33-.61,3.87,3.87,0,0,0,.11-.89,4.33,4.33,0,0,0-.11-.89,1.24,1.24,0,0,0-.95-.95,4.42,4.42,0,0,0-.95-.11h-.89Z"/><path class="cls-14" d="M110,46.17h2.45a1.11,1.11,0,0,0,.5-.11c.11-.06.28-.11.33-.22a1.16,1.16,0,0,0,.22-.33,1,1,0,0,0,.11-.39l.11-.56h.67l-.11,2.23h-6.85v-.56h.17a.83.83,0,0,0,.39-.06.79.79,0,0,0,.33-.11.56.56,0,0,0,.22-.28,1,1,0,0,0,.11-.45V39.09a1.38,1.38,0,0,0-.06-.5.56.56,0,0,0-.22-.28.79.79,0,0,0-.33-.11c-.11,0-.28-.06-.39-.06h-.17v-.56H114l.06,2.23h-.67l-.06-.56a.8.8,0,0,0-.11-.39,1,1,0,0,0-.56-.56,1.11,1.11,0,0,0-.5-.11H110v3.4H113v.72H110v3.84Z"/><path class="cls-14" d="M123.13,46.78v-.56h.06a1,1,0,0,0,.39-.06.43.43,0,0,0,.28-.11.77.77,0,0,0,.17-.22,1,1,0,0,0,.06-.45V38.59l-2.9,8.19h-.67l-3-8.13v6.68a1.38,1.38,0,0,0,.06.5,1.22,1.22,0,0,0,.17.28.43.43,0,0,0,.28.11c.11,0,.22.06.39.06h.06v.56h-3v-.56h.17a.83.83,0,0,0,.39-.06.79.79,0,0,0,.33-.11.56.56,0,0,0,.22-.28,1,1,0,0,0,.11-.45V39.09a.6.6,0,0,0-.11-.45.56.56,0,0,0-.22-.28.79.79,0,0,0-.33-.11c-.11,0-.28-.06-.39-.06h-.17v-.56h2.9l2.67,7.3,2.62-7.3h2.84v.56h-.17a.83.83,0,0,0-.39.06c-.11.06-.22.06-.33.11a.56.56,0,0,0-.22.28,1.24,1.24,0,0,0-.06.5v6.24a1.38,1.38,0,0,0,.06.5.56.56,0,0,0,.22.28.79.79,0,0,0,.33.11c.11,0,.28.06.39.06h.17v.56h-3.4Z"/><path class="cls-14" d="M130,46.17h2.45a1.11,1.11,0,0,0,.5-.11c.11-.06.28-.11.33-.22a1.16,1.16,0,0,0,.22-.33,1,1,0,0,0,.11-.39l.11-.56h.67l-.11,2.23h-6.79v-.56h.17a.83.83,0,0,0,.39-.06.79.79,0,0,0,.33-.11.56.56,0,0,0,.22-.28,1,1,0,0,0,.11-.45V39.09a1.38,1.38,0,0,0-.06-.5.56.56,0,0,0-.22-.28.79.79,0,0,0-.33-.11c-.11,0-.28-.06-.39-.06h-.22v-.56H134l.06,2.23h-.67l-.06-.56a.8.8,0,0,0-.11-.39,1,1,0,0,0-.56-.56,1.11,1.11,0,0,0-.5-.11H130v3.4H133v.72H130v3.84Z"/><path class="cls-14" d="M142.23,46.78l-4.79-7.35v5.9a1.33,1.33,0,0,0,.11.5.56.56,0,0,0,.22.28.79.79,0,0,0,.33.11c.11,0,.28.06.39.06h.17v.56h-3.23v-.56h.17a.83.83,0,0,0,.39-.06.79.79,0,0,0,.33-.11.56.56,0,0,0,.22-.28,1.24,1.24,0,0,0,.06-.5V39.09a.6.6,0,0,0-.11-.45.56.56,0,0,0-.22-.28.79.79,0,0,0-.33-.11c-.11,0-.28-.06-.39-.06h-.17v-.56h2.34l4.57,7.07V39.09a.6.6,0,0,0-.11-.45.56.56,0,0,0-.22-.28.79.79,0,0,0-.33-.11c-.11,0-.28-.06-.39-.06h-.17v-.56h3.23v.56h-.06a.83.83,0,0,0-.39.06.79.79,0,0,0-.33.11.56.56,0,0,0-.22.28,1.24,1.24,0,0,0-.06.5v7.63Z"/><path class="cls-14" d="M149.3,45.33a1.33,1.33,0,0,0,.11.5.56.56,0,0,0,.22.28.79.79,0,0,0,.33.11c.11,0,.28.06.39.06h.28v.56h-4v-.56H147a.83.83,0,0,0,.39-.06.79.79,0,0,0,.33-.11.56.56,0,0,0,.22-.28,1,1,0,0,0,.11-.45V38.31H146.8a1,1,0,0,0-.45.11,1.16,1.16,0,0,0-.33.22c-.06.11-.17.22-.17.33s-.06.28-.11.39l-.06.56H145l.06-2.23h7.18l.06,2.23h-.67l-.06-.56a.8.8,0,0,0-.11-.39l-.17-.33a.51.51,0,0,0-.33-.22,1.11,1.11,0,0,0-.5-.11h-1.23v7Z"/><path class="cls-14" d="M163,46.78v-.56h.17a.83.83,0,0,0,.39-.06.79.79,0,0,0,.33-.11.56.56,0,0,0,.22-.28,1.24,1.24,0,0,0,.06-.5V39.09a.6.6,0,0,0-.11-.45.56.56,0,0,0-.22-.28.79.79,0,0,0-.33-.11c-.11,0-.28-.06-.39-.06h-.17v-.56h3.56a5,5,0,0,1,1.39.17,2.23,2.23,0,0,1,1,.56,1.71,1.71,0,0,1,.56.84,3.59,3.59,0,0,1,.17,1.11,3.86,3.86,0,0,1-.17,1.11,3.26,3.26,0,0,1-.56.95,2.48,2.48,0,0,1-1.06.67,4.52,4.52,0,0,1-1.61.22h-.78v2.17a.6.6,0,0,0,.11.45.56.56,0,0,0,.22.28.79.79,0,0,0,.33.11c.11,0,.28.06.39.06H167v.56h-4Zm2.51-4.12h.67a5,5,0,0,0,1-.11,1.34,1.34,0,0,0,.67-.39,1.76,1.76,0,0,0,.39-.72,3.09,3.09,0,0,0,.11-1.06,4.9,4.9,0,0,0-.11-.95,1.27,1.27,0,0,0-.33-.67,2.3,2.3,0,0,0-.61-.39,2.46,2.46,0,0,0-.95-.11h-.89v4.4Z"/><path class="cls-14" d="M170.74,46.78v-.56h.17a.83.83,0,0,0,.39-.06.79.79,0,0,0,.33-.11.56.56,0,0,0,.22-.28,1.24,1.24,0,0,0,.06-.5V39.09a1.38,1.38,0,0,0-.06-.5.56.56,0,0,0-.22-.28.79.79,0,0,0-.33-.11c-.11,0-.28-.06-.39-.06h-.17v-.56h3.73v.56h-.17a.83.83,0,0,0-.39.06.79.79,0,0,0-.33.11.56.56,0,0,0-.22.28,1,1,0,0,0-.11.45v7.07h2.51a1.63,1.63,0,0,0,.5-.11,1.48,1.48,0,0,0,.33-.28.9.9,0,0,0,.22-.39c.06-.11.06-.28.11-.39L177,44h.67l-.11,2.73h-6.85Z"/><path class="cls-14" d="M180.82,43.72l-.5,1.34c-.06.11-.06.22-.11.28s-.06.17-.06.28a.54.54,0,0,0,.22.5,1,1,0,0,0,.61.17h.28v.56H178.2v-.56h.22a.71.71,0,0,0,.33-.06c.11-.06.17-.06.22-.17a1,1,0,0,1,.22-.28c.06-.11.11-.28.22-.5l2.84-7.57h1l2.9,7.91.17.33a.77.77,0,0,0,.17.22.42.42,0,0,0,.22.11c.11,0,.22.06.33.06h.17v.56h-3.51v-.56H184c.5,0,.78-.22.78-.61a.33.33,0,0,0-.06-.22,2.41,2.41,0,0,1-.06-.28l-.5-1.45h-3.34Zm2.34-2.84c-.11-.39-.28-.72-.39-1.06a8.59,8.59,0,0,1-.28-.95c-.06.17-.06.28-.11.45s-.06.28-.11.45a3.84,3.84,0,0,1-.17.45c-.06.11-.11.33-.22.56L181,43.1h2.9Z"/><path class="cls-14" d="M191,45.33a1.33,1.33,0,0,0,.11.5.56.56,0,0,0,.22.28.79.79,0,0,0,.33.11c.11,0,.28.06.39.06h.28v.56h-4v-.56h.28a.83.83,0,0,0,.39-.06.79.79,0,0,0,.33-.11.56.56,0,0,0,.22-.28,1,1,0,0,0,.11-.45V38.31h-1.23a1,1,0,0,0-.45.11,1.16,1.16,0,0,0-.33.22c-.06.11-.17.22-.17.33s-.06.28-.11.39l-.06.56h-.67l.06-2.23H194l.06,2.23h-.67l-.06-.56a.8.8,0,0,0-.11-.39l-.17-.33a.51.51,0,0,0-.33-.22,1.11,1.11,0,0,0-.5-.11H191Z"/><path class="cls-14" d="M197.31,38.31V42h3.06v.61h-3.06v2.73a.75.75,0,0,0,.11.5.56.56,0,0,0,.22.28.79.79,0,0,0,.33.11c.11,0,.28.06.39.06h.45v.56h-4v-.56H195a.83.83,0,0,0,.39-.06.79.79,0,0,0,.33-.11.56.56,0,0,0,.22-.28,1,1,0,0,0,.11-.45V39.09a.6.6,0,0,0-.11-.45.56.56,0,0,0-.22-.28.79.79,0,0,0-.33-.11c-.11,0-.28-.06-.39-.06h-.17v-.56h6.46l.06,2.23h-.67l-.06-.56a.8.8,0,0,0-.11-.39,1,1,0,0,0-.56-.56,1.33,1.33,0,0,0-.5-.11h-2.17Z"/><path class="cls-14" d="M210.62,42.21a7.16,7.16,0,0,1-.28,1.95,4.83,4.83,0,0,1-.78,1.5,3.66,3.66,0,0,1-1.28.95,4.15,4.15,0,0,1-1.73.33,4.42,4.42,0,0,1-1.78-.33,3.66,3.66,0,0,1-1.28-.95,3.79,3.79,0,0,1-.72-1.5,7,7,0,0,1-.22-1.95,7.21,7.21,0,0,1,.22-1.95,4.2,4.2,0,0,1,.72-1.5,3.66,3.66,0,0,1,1.28-.95,4.42,4.42,0,0,1,1.78-.33,4.15,4.15,0,0,1,1.73.33,4.25,4.25,0,0,1,1.28.95,3.85,3.85,0,0,1,.78,1.5A7.16,7.16,0,0,1,210.62,42.21Zm-6.63,0a7.36,7.36,0,0,0,.17,1.67,4.34,4.34,0,0,0,.45,1.28,2.23,2.23,0,0,0,.84.78,2.83,2.83,0,0,0,2.45,0,1.76,1.76,0,0,0,.78-.78,3.84,3.84,0,0,0,.45-1.28,7.89,7.89,0,0,0,.11-1.67,14,14,0,0,0-.11-1.67,4.34,4.34,0,0,0-.45-1.28,2.09,2.09,0,0,0-.78-.78,2.83,2.83,0,0,0-2.45,0,2.23,2.23,0,0,0-.84.78,2.91,2.91,0,0,0-.45,1.28A7.72,7.72,0,0,0,204,42.21Z"/><path class="cls-14" d="M218.41,45.22A5.44,5.44,0,0,0,219,46a1.06,1.06,0,0,0,.72.28h.06v.56h-.17a5.41,5.41,0,0,1-1-.06,5.78,5.78,0,0,1-.67-.17,1.34,1.34,0,0,1-.45-.33,2.92,2.92,0,0,1-.39-.61l-1.73-2.9h-1.06v2.62a.6.6,0,0,0,.11.45.56.56,0,0,0,.22.28.79.79,0,0,0,.33.11c.11,0,.28.06.39.06h.17v.56h-3.73v-.56H212a.83.83,0,0,0,.39-.06.79.79,0,0,0,.33-.11.56.56,0,0,0,.22-.28,1,1,0,0,0,.11-.45V39.09a.6.6,0,0,0-.11-.45.56.56,0,0,0-.22-.28.79.79,0,0,0-.33-.11c-.11,0-.28-.06-.39-.06h-.17v-.56h3.45a4.05,4.05,0,0,1,2.45.61,2.23,2.23,0,0,1,.84,1.84,2.31,2.31,0,0,1-.17.89,2,2,0,0,1-.45.67,2.47,2.47,0,0,1-.61.45,3.41,3.41,0,0,1-.67.28Zm-4.07-3.06h.89a4.42,4.42,0,0,0,.95-.11,1.44,1.44,0,0,0,.61-.39,1.33,1.33,0,0,0,.33-.61,3.87,3.87,0,0,0,.11-.89,4.33,4.33,0,0,0-.11-.89,1.24,1.24,0,0,0-.95-.95,4.42,4.42,0,0,0-.95-.11h-.89Z"/><path class="cls-14" d="M227.82,46.78v-.56h.06a1,1,0,0,0,.39-.06.43.43,0,0,0,.28-.11.77.77,0,0,0,.17-.22,1,1,0,0,0,.06-.45V38.59l-2.9,8.19h-.67l-3-8.13v6.68a1.38,1.38,0,0,0,.06.5,1.22,1.22,0,0,0,.17.28.43.43,0,0,0,.28.11c.11,0,.22.06.39.06h.06v.56h-3v-.56h.17a.83.83,0,0,0,.39-.06.79.79,0,0,0,.33-.11.56.56,0,0,0,.22-.28,1,1,0,0,0,.11-.45V39.09a.6.6,0,0,0-.11-.45.56.56,0,0,0-.22-.28.79.79,0,0,0-.33-.11c-.11,0-.28-.06-.39-.06h-.17v-.56h2.9l2.67,7.3,2.62-7.3h2.84v.56h-.17a.83.83,0,0,0-.39.06c-.11.06-.22.06-.33.11a.56.56,0,0,0-.22.28,1.24,1.24,0,0,0-.06.5v6.24a1.38,1.38,0,0,0,.06.5.56.56,0,0,0,.22.28.79.79,0,0,0,.33.11c.11,0,.28.06.39.06h.17v.56h-3.4Z"/><path class="cls-15" d="M59.7.61,58.64,3.9h6.18V6h-9l1.84-6Zm5.12,26.73H62.26a3.7,3.7,0,0,1-3.73-3.73V17.43H56V15.37h2.56V11.08H56V9h8.91v2.06H60.59v4.29h4.29v2.06H60.59v6.18a1.74,1.74,0,0,0,1.73,1.73h2.56v2ZM81.19,1.06,79.8,3.84a3.29,3.29,0,0,1,2.84,3.23v6.29a3.24,3.24,0,0,1-3.23,3.29h-.89v7a1.79,1.79,0,0,0,1.78,1.78h3.06v2.06H80.3a3.81,3.81,0,0,1-3.84-3.84V16.6H73c-.11,5.4-2.39,8.74-6,10.92l-1-1.78c3-1.78,4.9-4.62,5-9.19H70a3.26,3.26,0,0,1-3.29-3.29V7.13A3.21,3.21,0,0,1,69.56,3.9L68.16,1.11,70,.22,71.84,3.9h5.74L79.41.22ZM79.36,14.59a1.24,1.24,0,0,0,1.23-1.23V7.13A1.24,1.24,0,0,0,79.36,5.9H70a1.24,1.24,0,0,0-1.23,1.23v6.24A1.24,1.24,0,0,0,70,14.59Z"/><path class="cls-15" d="M113,10.14h-27V8.07h5.07V4.79h2.06V8.07h12.7V4.79H108V8.07H113v2.06Zm-7.91,10.14v4a1.18,1.18,0,0,0,1.17,1.17h6.91v2.06h-6.91a3.23,3.23,0,0,1-3.23-3.23v-4H95.51c-1.34,4.4-4.79,6.18-8.07,7.24l-.61-1.95c2.56-.84,5.29-2.17,6.52-5.29H91.72A3.2,3.2,0,0,1,88.49,17V14.7a3.23,3.23,0,0,1,3.23-3.23h15.76a3.23,3.23,0,0,1,3.23,3.23V17a3.23,3.23,0,0,1-3.23,3.23Zm6.57-16.09H87.43V2.12h11V.06h2.06V2.12h11.19Zm-4.23,14.09a1.19,1.19,0,0,0,1.23-1.17V14.76a1.19,1.19,0,0,0-1.23-1.17H91.72a1.19,1.19,0,0,0-1.23,1.17V17.1a1.19,1.19,0,0,0,1.23,1.17Z"/><path class="cls-15" d="M130.65,10.8V13h12V15H134l8.85,11.08-1.61,1.28L131.48,15h-.84V27.57h-2V15H128c-2.23,5.07-6,8.91-10.25,12.36l-1.28-1.61c3.73-3.12,7.07-6.52,9.24-10.75h-9.19V12.92h12.08V10.75h2ZM117.73,1.73,141.51.67l.11,2.06L117.84,3.79Zm3.12,3.12,1.89,5.9-1.95.61-1.95-5.9ZM129.31,4l1.78,5.57-1.95.61-1.78-5.57ZM140.56,5a24.78,24.78,0,0,1-4,6.74l-1.61-1.28a25.06,25.06,0,0,0,3.68-6.24Z"/><path class="cls-15" d="M153,6v4.51a40.14,40.14,0,0,1-.45,6.74l6,7.91L157,26.34l-5-6.52a20.2,20.2,0,0,1-4.46,7.63L146,26.12c4.12-4.79,5-8.41,5-15.65V6Zm-6.57,13V4.07A3.23,3.23,0,0,1,149.69.84h4.73a3.23,3.23,0,0,1,3.23,3.23V19h-2.06V4.07a1.2,1.2,0,0,0-1.23-1.23h-4.73a1.19,1.19,0,0,0-1.17,1.23V19Zm18.32,6.07h5a1.74,1.74,0,0,0,1.73-1.73V6.57a1.74,1.74,0,0,0-1.73-1.73H158.88L160.66.06l1.95.72-.84,2h7.91a3.83,3.83,0,0,1,3.79,3.79V23.33a3.83,3.83,0,0,1-3.79,3.79h-5V25.06Zm.33-18-3.45,12.36h4.18a1.24,1.24,0,0,0,1.23-1.23v-3.9h2.06v3.9a3.23,3.23,0,0,1-3.23,3.23H159l4.18-15Z"/><path class="cls-15" d="M177.48.45h24.73V2.51H190.9V16.09h12.36v2.06H190.9v9.41h-2.06V18.1H176.48V16h12.36V2.51H177.48ZM180.82,4l3.45,9.41-1.95.72-3.45-9.41Zm20,.56a39.28,39.28,0,0,1-3.51,9.63l-1.78-.95a39.28,39.28,0,0,0,3.34-9.13Z"/><path class="cls-15" d="M207.78,17.54a3.83,3.83,0,0,1,3.79-3.79h16.65A3.83,3.83,0,0,1,232,17.54v6.18a3.83,3.83,0,0,1-3.79,3.79H211.56a3.83,3.83,0,0,1-3.79-3.79ZM231.55,4v3.9a3.83,3.83,0,0,1-3.79,3.79H208L211.78,0l1.95.61-3,9h17a1.74,1.74,0,0,0,1.73-1.73V4ZM209.84,23.67a1.74,1.74,0,0,0,1.73,1.73h16.65a1.74,1.74,0,0,0,1.73-1.73V17.54a1.74,1.74,0,0,0-1.73-1.73H211.56a1.74,1.74,0,0,0-1.73,1.73Z"/></svg>